<svg xmlns="http://www.w3.org/2000/svg" viewBox="0 0 160 160">
  <defs>
    <radialGradient id="cgGlow" cx="50%" cy="50%" r="65%">
      <stop offset="0%" stop-color="#FCE69A" />
      <stop offset="35%" stop-color="#F6C552" />
      <stop offset="70%" stop-color="#D69E2E" />
      <stop offset="100%" stop-color="#9A6C1D" />
    </radialGradient>
    <linearGradient id="cgRing" x1="0%" y1="0%" x2="100%" y2="100%">
      <stop offset="0%" stop-color="#FFF7C2" />
      <stop offset="45%" stop-color="#FAD66B" />
      <stop offset="100%" stop-color="#C07A1A" />
    </linearGradient>
    <linearGradient id="cgLeaf" x1="0%" y1="0%" x2="0%" y2="100%">
      <stop offset="0%" stop-color="#8EF1C0" />
      <stop offset="100%" stop-color="#1B8760" />
    </linearGradient>
  </defs>
  <circle cx="80" cy="80" r="68" fill="url(#cgGlow)" />
  <circle cx="80" cy="80" r="58" fill="none" stroke="url(#cgRing)" stroke-width="6" />
  <path d="M80 42c-9.5 12.2-15.2 27.6-15.2 42.4 0 13.3 4.6 24.1 15.2 33.6 10.6-9.5 15.2-20.3 15.2-33.6C95.2 69.6 89.5 54.2 80 42z" fill="url(#cgLeaf)" />
  <path d="M66 92c7.1 4.9 9.9 11.6 14 27.5 4.1-15.9 6.9-22.6 14-27.5-4.3 2.1-9.1 3.2-14 3.2s-9.7-1.1-14-3.2z" fill="#0F5132" opacity="0.45" />
  <path d="M55 75c6.9 6.2 15.6 7.6 25 7.6s18.1-1.4 25-7.6c-4 1.3-12.3 7.6-25 7.6S59 76.3 55 75z" fill="#FDF8CD" opacity="0.35" />
  <circle cx="80" cy="80" r="74" fill="none" stroke="rgba(252, 230, 154, 0.35)" stroke-width="1" />
</svg>
